<svg xmlns="http://www.w3.org/2000/svg" viewBox="0 0 563.88 103.12"><defs><style>.cls-1,.cls-2,.cls-3{fill:#dc965a;}.cls-1{stroke:#dc965a;}.cls-1,.cls-3,.cls-4{stroke-miterlimit:10;}.cls-3{stroke:#f5f9e9;stroke-width:3px;}.cls-4{font-size:36px;fill:#0e9594;stroke:#0e9594;stroke-width:0.8px;font-family:TsukuARdGothic-Bold-83pv-RKSJ-H, Tsukushi A Round Gothic;}</style></defs><g id="レイヤー_2" data-name="レイヤー 2"><g id="レイヤー_1-2" data-name="レイヤー 1"><path class="cls-1" d="M21.55,29.67a7.89,7.89,0,0,1-6.84-11.82L22.33,4.59A7.89,7.89,0,0,1,36,4.59l7.63,13.25a7.9,7.9,0,0,1-6.85,11.83Z"/><path class="cls-1" d="M55.59,29.67a7.93,7.93,0,0,1-6.87-11.88L56.37,4.48a7.93,7.93,0,0,1,13.75,0l7.65,13.31A7.93,7.93,0,0,1,70.9,29.67Z"/><path class="cls-2" d="M34,98.81a7,7,0,0,1-4.84-2L12.21,80.62a7,7,0,0,1-2.16-5.06V40.76a7,7,0,0,1,.55-2.71H7a7,7,0,0,1-7-7V23.92a7,7,0,0,1,7-7H80.65a7,7,0,0,1,7,7v7.13a7,7,0,0,1-7,7H39.89l-8.7,8.36V69.73l8.34,7.94H72.91a7,7,0,0,1,7,7v7.14a7,7,0,0,1-7,7Z"/><path class="cls-2" d="M140.26,98.81a7,7,0,0,1-4.11-1.34l-42.79-31a7,7,0,0,1-2.9-5.67v-10a7,7,0,0,1,2.86-5.64l42.8-31.45a7,7,0,0,1,4.14-1.36H160.2a7,7,0,0,1,7,7v7.13a7,7,0,0,1-7,7H144.9L115,55.74l30.14,21.85H160.2a7,7,0,0,1,7,7v7.22a7,7,0,0,1-7,7Z"/><path class="cls-3" d="M140.26,91.81l-42.8-31v-10l42.8-31.45H160.2v7.13H142.58L104.43,54.85v1.89l38.41,27.85H160.2v7.22Z"/><path class="cls-2" d="M219.33,98.81a7,7,0,0,1-4.92-2l-7.74-7.64a7.09,7.09,0,0,1-1.22-1.63v4.3a7,7,0,0,1-7,7h-7a7,7,0,0,1-7-7V81.36H180a7,7,0,0,1-7-7V67.23a7,7,0,0,1,7-7h4.43V45.87H180a7,7,0,0,1-7-7V31.74a7,7,0,0,1,7-7h4.43v-8a7,7,0,0,1,7-7h7a7,7,0,0,1,7,7V32.72L222,19.18a7,7,0,0,1,4.42-1.58H240.3a7,7,0,0,1,4.92,2l9.37,9.28a7,7,0,0,1,2.07,5V55.2a7,7,0,0,1,5.68,6.87v6.62a7,7,0,0,1-5.68,6.87V83.9a7,7,0,0,1-2.07,5l-8,7.9a7,7,0,0,1-4.92,2Zm16-20.28.36-.37V75.69H225.21v2.84Zm-29.89-11.9a6.81,6.81,0,0,1,1.14-1.55l7.73-7.9a7,7,0,0,1,5-2.11H235.7V39.67l-.92-.93H231.2L205.45,59.88Z"/><path class="cls-3" d="M249.66,68.69V83.9l-8,7.91H219.33l-7.74-7.65V70l7.74-7.91H242.7V36.81l-5-5.07h-9L198.45,56.57V91.81h-7V74.36H180V67.23H191.4V38.87H180V31.74H191.4v-15h7V47.46l28-22.86H240.3l9.36,9.28V62.07h5.68v6.62Zm-7,0H222.25l-4,4.12v8.6l4,4.12h16.07L242.7,81Z"/><path class="cls-2" d="M280.78,98.81a7,7,0,0,1-5-2.07L264,84.79a7,7,0,0,1-2-4.93v-15a7,7,0,0,1,7-7h7.13a7,7,0,0,1,7,7v8.73l4.09,4.12h49.41a7,7,0,0,1,7,7v7.14a7,7,0,0,1-7,7ZM272,39.25a7,7,0,0,1-7-7V25.12a7,7,0,0,1,7-7h62.05a7,7,0,0,1,7,7v7.13a7,7,0,0,1-7,7Z"/><path class="cls-3" d="M280.78,91.81l-11.86-12v-15h7.13v11.6l8.16,8.25h52.34v7.14ZM272,32.25V25.12h62.05v7.13Z"/><path class="cls-3" d="M19.56,23.68a.91.91,0,0,0,.84-.57L26.75,8.22c1.33-2.32,3.51-2.32,4.84,0L39.08,23.5a.3.3,0,0,0,.27.17c1.57,0,12.41.07,14.66,0a.27.27,0,0,0,.22-.15L60.82,8.1a2.79,2.79,0,0,1,4.84,0l7.12,14.77a1.48,1.48,0,0,0,1.27.83l7.59.22v7.13H38.07L25.18,43.42V72.73L37.73,84.67H73.91v7.14H35L18.05,75.56V40.76l10.49-9.71H8V23.92Z"/><text class="cls-4" transform="translate(347.4 48.67)">高知工科大学<tspan x="0" y="44">猫愛護団体</tspan></text><path class="cls-2" d="M554.35,80.21c-1.32-1.12-4.6-4.95-8.55-4.63-2.67.22-4.45,1.87-6.78,4.09s-5.11,4.86-5,8.46a7.68,7.68,0,0,0,3.5,6.29c2.39,1.28,7.58-1.75,9-1.56.92.13,5.29,1.7,8.61,1.38,2.2-.21,3.73-4.08,3.54-6.69C558.43,84.25,556.42,82,554.35,80.21Z"/><path class="cls-2" d="M533.74,81.68A4.17,4.17,0,0,0,537.08,80c1.44-2.14-.41-5.06-1-6-1.37-2.18-4.43-5.1-6.46-4.26-1.77.74-2,4-1.53,6.09C528.65,78.39,530.84,81.7,533.74,81.68Z"/><path class="cls-2" d="M539.9,75.41a4.16,4.16,0,0,0,3.63-.76c2-1.68,1-5,.73-6-.68-2.45-2.76-6-4.9-5.76-1.89.25-3,3.34-3.15,5.43C536,70.94,537.14,74.67,539.9,75.41Z"/><path class="cls-2" d="M558.44,81A4.22,4.22,0,0,1,555,79.49c-1.55-2.06.14-5.09.68-6.07,1.26-2.26,4.16-5.33,6.22-4.6,1.81.63,2.2,3.91,1.86,6C563.35,77.45,561.34,80.87,558.44,81Z"/><path class="cls-2" d="M552.17,75a4.11,4.11,0,0,1-3.69-.44c-2.1-1.5-1.48-4.84-1.27-5.93.46-2.5,2.2-6.26,4.37-6.17,1.89.08,3.28,3.06,3.62,5.13C555.64,70.25,554.84,74.07,552.17,75Z"/></g></g></svg>