<svg xmlns="http://www.w3.org/2000/svg" viewBox="0 0 563.88 98.81"><defs><style>.cls-1,.cls-2,.cls-3{fill:#dc965a;}.cls-1{stroke:#dc965a;}.cls-1,.cls-3{stroke-miterlimit:10;}.cls-3{stroke:#f5f9e9;stroke-width:3px;}.cls-4{fill:#0e9594;}</style></defs><g id="レイヤー_2" data-name="レイヤー 2"><g id="レイヤー_1-2" data-name="レイヤー 1"><path class="cls-1" d="M21.55,29.67a7.89,7.89,0,0,1-6.84-11.82L22.33,4.59A7.89,7.89,0,0,1,36,4.59l7.63,13.25a7.9,7.9,0,0,1-6.85,11.83Z"/><path class="cls-1" d="M55.59,29.67a7.93,7.93,0,0,1-6.87-11.88L56.37,4.48a7.93,7.93,0,0,1,13.75,0l7.65,13.31A7.93,7.93,0,0,1,70.9,29.67Z"/><path class="cls-2" d="M34,98.81a7,7,0,0,1-4.84-2L12.21,80.62a7,7,0,0,1-2.16-5.06V40.76a7,7,0,0,1,.55-2.71H7a7,7,0,0,1-7-7V23.92a7,7,0,0,1,7-7H80.65a7,7,0,0,1,7,7v7.13a7,7,0,0,1-7,7H39.89l-8.7,8.36V69.73l8.34,7.94H72.91a7,7,0,0,1,7,7v7.14a7,7,0,0,1-7,7Z"/><path class="cls-2" d="M140.26,98.81a7,7,0,0,1-4.11-1.34l-42.79-31a7,7,0,0,1-2.9-5.67v-10a7,7,0,0,1,2.86-5.64l42.8-31.45a7,7,0,0,1,4.14-1.36H160.2a7,7,0,0,1,7,7v7.13a7,7,0,0,1-7,7H144.9L115,55.74l30.14,21.85H160.2a7,7,0,0,1,7,7v7.22a7,7,0,0,1-7,7Z"/><path class="cls-3" d="M140.26,91.81l-42.8-31v-10l42.8-31.45H160.2v7.13H142.58L104.43,54.85v1.89l38.41,27.85H160.2v7.22Z"/><path class="cls-2" d="M219.33,98.81a7,7,0,0,1-4.92-2l-7.74-7.64a7.09,7.09,0,0,1-1.22-1.63v4.3a7,7,0,0,1-7,7h-7a7,7,0,0,1-7-7V81.36H180a7,7,0,0,1-7-7V67.23a7,7,0,0,1,7-7h4.43V45.87H180a7,7,0,0,1-7-7V31.74a7,7,0,0,1,7-7h4.43v-8a7,7,0,0,1,7-7h7a7,7,0,0,1,7,7V32.72L222,19.18a7,7,0,0,1,4.42-1.58H240.3a7,7,0,0,1,4.92,2l9.37,9.28a7,7,0,0,1,2.07,5V55.2a7,7,0,0,1,5.68,6.87v6.62a7,7,0,0,1-5.68,6.87V83.9a7,7,0,0,1-2.07,5l-8,7.9a7,7,0,0,1-4.92,2Zm16-20.28.36-.37V75.69H225.21v2.84Zm-29.89-11.9a6.81,6.81,0,0,1,1.14-1.55l7.73-7.9a7,7,0,0,1,5-2.11H235.7V39.67l-.92-.93H231.2L205.45,59.88Z"/><path class="cls-3" d="M249.66,68.69V83.9l-8,7.91H219.33l-7.74-7.65V70l7.74-7.91H242.7V36.81l-5-5.07h-9L198.45,56.57V91.81h-7V74.36H180V67.23H191.4V38.87H180V31.74H191.4v-15h7V47.46l28-22.86H240.3l9.36,9.28V62.07h5.68v6.62Zm-7,0H222.25l-4,4.12v8.6l4,4.12h16.07L242.7,81Z"/><path class="cls-2" d="M280.78,98.81a7,7,0,0,1-5-2.07L264,84.79a7,7,0,0,1-2-4.93v-15a7,7,0,0,1,7-7h7.13a7,7,0,0,1,7,7v8.73l4.09,4.12h49.41a7,7,0,0,1,7,7v7.14a7,7,0,0,1-7,7ZM272,39.25a7,7,0,0,1-7-7V25.12a7,7,0,0,1,7-7h62.05a7,7,0,0,1,7,7v7.13a7,7,0,0,1-7,7Z"/><path class="cls-3" d="M280.78,91.81l-11.86-12v-15h7.13v11.6l8.16,8.25h52.34v7.14ZM272,32.25V25.12h62.05v7.13Z"/><path class="cls-3" d="M19.56,23.68a.91.91,0,0,0,.84-.57L26.75,8.22c1.33-2.32,3.51-2.32,4.84,0L39.08,23.5a.3.3,0,0,0,.27.17c1.57,0,12.41.07,14.66,0a.27.27,0,0,0,.22-.15L60.82,8.1a2.79,2.79,0,0,1,4.84,0l7.12,14.77a1.48,1.48,0,0,0,1.27.83l7.59.22v7.13H38.07L25.18,43.42V72.73L37.73,84.67H73.91v7.14H35L18.05,75.56V40.76l10.49-9.71H8V23.92Z"/><path class="cls-4" d="M352.55,26a1.46,1.46,0,1,1,0-2.92H363.6v-2.3a1.88,1.88,0,0,1,3.75,0V23h11a1.46,1.46,0,0,1,0,2.92Zm23,17.28c0-1.16,0-2.42-.08-3.39a1.54,1.54,0,0,0-1.65-1.47c-2.74-.07-5.8-.07-8.78-.07s-5.8,0-8.14.07a1.54,1.54,0,0,0-1.58,1.47c0,1.44,0,3.24,0,5s0,3.57,0,4.93v.08a1.51,1.51,0,0,1-1.69,1.44,1.64,1.64,0,0,1-1.8-1.52c0-1.58,0-3.45,0-5.36s0-3.78,0-5.4c0-2,1.62-3.42,4.21-3.45s5.86-.08,9.1-.08,6.55,0,9.61.08c2.49,0,4.07,1.44,4.18,3.38s.11,4,.11,5c0,.43,0,2.16,0,3.13v.11c0,2-1.44,3.81-5.18,3.81-2.81,0-3.71-.54-3.71-1.76a1.59,1.59,0,0,1,1.62-1.62,1.42,1.42,0,0,1,.36,0,10.71,10.71,0,0,0,1.73.18c1,0,1.62-.28,1.62-1.33C375.48,46.51,375.52,45,375.52,43.24ZM367,34.17c-2.34,0-4.86,0-6.8-.08-2.85,0-3.64-.79-3.64-3.24s.33-3.38,3.42-3.42c2,0,4.36-.07,6.66-.07,6.95,0,7.81.07,7.81,3.21C374.47,34,373.68,34.17,367,34.17Zm-1.73,5.76c6.2,0,7.38,0,7.38,3.38s-.9,3.81-8.13,3.81c-6.09,0-6.37-.75-6.37-3.74,0-1.62,0-3.27,2.91-3.38C362.27,39.93,363.78,39.93,365.29,39.93Zm4.65-10.16c-1.33,0-2.85,0-4.36,0s-3.06,0-4.53,0c-1,0-1.19.22-1.19.94,0,1.08,0,1.08,6.23,1.08,5,0,5,0,5-1.08C371.12,30.13,371.12,29.77,369.94,29.77Zm-4.57,12.39c-1.12,0-2.24,0-3,.07-.43,0-.94.14-.94,1.26s.25,1.26,3.93,1.26c3.92,0,3.92,0,3.92-1.3S369.29,42.16,365.37,42.16Z"/><path class="cls-4" d="M396.33,36.25a20.88,20.88,0,0,1-.4,3c2.09,1.29,6.48,4.68,6.48,6.58a2,2,0,0,1-1.91,2,1.57,1.57,0,0,1-1.44-.94,19,19,0,0,0-4-4.64,17.06,17.06,0,0,1-6.87,8,2.5,2.5,0,0,1-1.3.43,1.76,1.76,0,0,1-1.8-1.69,1.72,1.72,0,0,1,.94-1.47c5-3,6.62-6.77,7-11.31h-5.15a1.47,1.47,0,0,1-1.58-1.51,1.56,1.56,0,0,1,1.58-1.62h5.26V27.79l-1.69,0c-1.52,3.71-2.42,4.46-3.6,4.46a1.56,1.56,0,0,1-1.7-1.4,1.82,1.82,0,0,1,.44-1.15A20.54,20.54,0,0,0,390,20.63a1.31,1.31,0,0,1,1.44-1c.93,0,2,.57,2,1.47a18.33,18.33,0,0,1-.94,3.64h7.38a1.53,1.53,0,0,1,1.58,1.58A1.46,1.46,0,0,1,400,27.83h-.07l-3.49-.07c0,1.65,0,3.81,0,5.36h4.25a1.57,1.57,0,0,1,0,3.13Zm13.6,13c-3.67,0-6.51,0-6.62-4-.07-2.7-.11-5.62-.11-8.53s0-5.87.11-8.53c.11-3.53,3.06-3.57,6.19-3.57,1,0,2.12,0,3.1,0a3.67,3.67,0,0,1,3.81,3.78c.11,2.55.15,5.4.15,8.28s0,5.76-.15,8.42a3.81,3.81,0,0,1-3.89,4C411.77,49.21,410.87,49.25,409.93,49.25Zm3.17-12.56c0-2.67,0-5.3-.11-7.42,0-1.3-.29-1.65-3.09-1.65-3,0-3.13.53-3.17,1.65-.11,2.09-.15,4.64-.15,7.2,0,2.81,0,5.65.15,8,0,1.34.47,1.66,3.31,1.66,2.23,0,2.92-.4,2.95-1.76C413.06,42.05,413.1,39.35,413.1,36.69Z"/><path class="cls-4" d="M423.76,47.77a1.69,1.69,0,1,1,0-3.38h11.88V27h-9.83a1.66,1.66,0,1,1,0-3.31h23a1.63,1.63,0,0,1,1.62,1.69A1.55,1.55,0,0,1,448.85,27h-9.5V44.39H451a1.63,1.63,0,0,1,1.62,1.73A1.57,1.57,0,0,1,451,47.77Z"/><path class="cls-4" d="M467.53,49.57a1.78,1.78,0,0,1-3.52,0v0l.14-11.45a36.41,36.41,0,0,1-4,5.15,1.94,1.94,0,0,1-1.37.64A1.84,1.84,0,0,1,457,42.19,1.62,1.62,0,0,1,457.6,41a34.49,34.49,0,0,0,6.59-8.57l0-.75-4.21.1h0a1.47,1.47,0,0,1-1.58-1.54,1.54,1.54,0,0,1,1.62-1.59h4.18L464,25.06c-.68.11-3.09.54-3.49.54A1.59,1.59,0,0,1,458.9,24a1.52,1.52,0,0,1,1.44-1.55,29.9,29.9,0,0,0,8.92-2.12,1.9,1.9,0,0,1,.58-.11,1.65,1.65,0,0,1,1.62,1.66c0,1.26-1.37,1.72-4,2.44,0,.76,0,2.38-.07,4.32h3.67a1.54,1.54,0,0,1,1.62,1.59,1.5,1.5,0,0,1-1.59,1.54h0l-3.75-.07v1.77a1.27,1.27,0,0,1,.36,0c1.34,0,4.29,2.59,4.47,2.81a1.74,1.74,0,0,1-1.08,3,1.48,1.48,0,0,1-1.15-.61,14,14,0,0,0-2.6-2.34c0,5.43.18,13.32.18,13.32Zm13.93-8.17-8.6,2.41a1.68,1.68,0,0,1-.57.07,1.48,1.48,0,0,1-1.52-1.54A1.61,1.61,0,0,1,472,40.79l9.46-2.66-.07-17.07a1.55,1.55,0,0,1,1.69-1.54,1.63,1.63,0,0,1,1.77,1.54l-.07,16.17,3.52-1a2.49,2.49,0,0,1,.51-.07,1.6,1.6,0,0,1,1.55,1.62,1.47,1.47,0,0,1-1.16,1.44l-4.42,1.22.07,9.25c0,.94-.87,1.4-1.73,1.4s-1.73-.46-1.73-1.4Zm-4.75-5.47a19.46,19.46,0,0,0-3.31-2.56,1.3,1.3,0,0,1-.72-1.11,1.64,1.64,0,0,1,1.77-1.44c1.26,0,3.85,1.87,4.5,2.52a1.9,1.9,0,0,1,.61,1.37,1.76,1.76,0,0,1-1.66,1.8A1.69,1.69,0,0,1,476.71,35.93ZM477,28.3a15.48,15.48,0,0,0-3.09-2.92,1.18,1.18,0,0,1-.58-.93,1.77,1.77,0,0,1,1.8-1.51c1,0,4.79,2.44,4.79,4.24A1.8,1.8,0,0,1,478.26,29,1.63,1.63,0,0,1,477,28.3Z"/><path class="cls-4" d="M522.72,32.08l-10.91-.15c2.38,7.31,6.91,12.1,12.6,14.58a1.73,1.73,0,0,1,1.12,1.62,2.39,2.39,0,0,1-2.27,2.34c-2,0-9.86-5.58-13.5-14.54a24.18,24.18,0,0,1-13.42,14.65,2.46,2.46,0,0,1-.94.22,2,2,0,0,1-1.94-1.95,1.77,1.77,0,0,1,1.22-1.65C502.49,44,505.77,38.13,507,31.93l-11,.15h0a1.68,1.68,0,0,1-1.8-1.73,1.74,1.74,0,0,1,1.83-1.8h11.48c.22-3.2.22-5.43.22-5.72V21.35a1.72,1.72,0,0,1,1.91-1.69,1.83,1.83,0,0,1,2,1.66v.79c0,1.69-.07,3.38-.18,5l-.11,1.4h11.41a1.73,1.73,0,0,1,1.8,1.76,1.7,1.7,0,0,1-1.76,1.77Z"/><path class="cls-4" d="M550,41.58a10.14,10.14,0,0,1,.11,1.58c0,3.24-1.51,8.14-7.77,8.14-2.81,0-4.32-.76-4.32-2.16a1.76,1.76,0,0,1,2.26-1.62,8.13,8.13,0,0,0,2.38.4c4,0,4-4.83,4-5.12a6.09,6.09,0,0,0-.11-1.22l-15.26.07a1.54,1.54,0,0,1-1.65-1.58,1.59,1.59,0,0,1,1.62-1.66l13.31.08a6,6,0,0,0-1.44-.76c-.75-.25-1.08-.72-1.08-1.19A1.79,1.79,0,0,1,544,35a4.61,4.61,0,0,1,2.13.72c.93-.61,2.84-1.94,2.84-2.38,0-.14-.15-.21-.4-.21s-1.08,0-1.9,0c-2.31,0-5.8.07-8.32.18h-.07a1.5,1.5,0,0,1-1.62-1.51,1.55,1.55,0,0,1,1.66-1.51c1.54-.07,3.49-.07,5.39-.07,2.63,0,5.26,0,6.91.07,2.06,0,2.92,1.08,2.92,2.19,0,1.77-1.91,3.24-5.15,5.26.18.25.36.5.51.76l10.72-.11A1.57,1.57,0,0,1,561.17,40a1.51,1.51,0,0,1-1.55,1.59Zm5.94-11.52c0-1.51-.79-1.76-2.27-1.8-2.87,0-6.11-.07-9.25-.07-2.55,0-5.07,0-7.3.07-2,0-2.31.54-2.41,1.8v2.13a1.69,1.69,0,0,1-1.84,1.58,1.63,1.63,0,0,1-1.73-1.62c0-.47,0-1,0-1.58s0-1.23,0-1.77c.07-1.69,1.41-3.42,4.21-3.45l3,0a1.62,1.62,0,0,1-.47-.5,10.21,10.21,0,0,0-2.52-2.59,1.24,1.24,0,0,1-.47-.94,1.82,1.82,0,0,1,1.84-1.55c1.36,0,4.17,2.74,4.17,4a1.94,1.94,0,0,1-1,1.58c3.17,0,6.3,0,9.47,0a17.74,17.74,0,0,0,2.55-4.76,1.68,1.68,0,0,1,1.62-1.15,2,2,0,0,1,2,1.77c0,.68-1.15,2.44-2.63,4.17.83,0,1.7,0,2.52,0,2.13,0,4.11,1.18,4.18,3.42,0,.5,0,1.26,0,1.94a13.28,13.28,0,0,1,0,1.33,1.79,1.79,0,0,1-1.91,1.59,1.61,1.61,0,0,1-1.8-1.52V30.06Zm-10.18-4.93a1.27,1.27,0,0,1-1.23-.86,10,10,0,0,0-2.12-3.1,1.24,1.24,0,0,1-.33-.79c0-.76.9-1.4,1.84-1.4,1.84,0,3.82,3.52,3.82,4.35A2,2,0,0,1,545.73,25.13Z"/><path class="cls-4" d="M351.94,85.44a1.64,1.64,0,0,1-1.08.39,1.7,1.7,0,0,1-1.73-1.51,1.52,1.52,0,0,1,.72-1.19A25.15,25.15,0,0,0,356.12,76a30.51,30.51,0,0,0-.94-3c-3.1,3-3.71,3.06-4.25,3.06a1.66,1.66,0,0,1-1.69-1.51,1.44,1.44,0,0,1,.79-1.23,21.82,21.82,0,0,0,3.89-3.24A16.71,16.71,0,0,0,351.8,67a1.83,1.83,0,0,1-.51-1.23,1.64,1.64,0,0,1,1.62-1.62c.65,0,1.58.36,3.35,3.28A20.83,20.83,0,0,0,357.91,65a1.37,1.37,0,0,1,1.23-.72,1.73,1.73,0,0,1,1.73,1.58c0,.43-.18,1.19-3.17,4.54a35.46,35.46,0,0,1,2.52,12.88c0,8.53-3.21,10.84-6.91,10.84-2.81,0-3.31-.76-3.31-1.87a1.58,1.58,0,0,1,1.44-1.73,1.68,1.68,0,0,1,.43.07,5.27,5.27,0,0,0,1.4.22,2.93,2.93,0,0,0,2.88-2.24A17.11,17.11,0,0,0,357,83a27.14,27.14,0,0,0-.18-3A32.26,32.26,0,0,1,351.94,85.44Zm23.68-14.18V74.1a1.57,1.57,0,0,1-1.72,1.51,1.45,1.45,0,0,1-1.59-1.4v-3H369V74.1a1.57,1.57,0,0,1-1.73,1.51,1.45,1.45,0,0,1-1.58-1.4V71.26l-3.24,0h0a1.53,1.53,0,0,1-1.58-1.58,1.51,1.51,0,0,1,1.58-1.59h0l3.24,0V65A1.67,1.67,0,0,1,369,65V68.2h3.27V65a1.67,1.67,0,0,1,3.31,0v3.13l4,0a1.59,1.59,0,0,1,0,3.17Zm-.1,23.07c-1.59.07-3.06.11-4.54.11-1.69,0-3.31,0-4.93-.11-2.63-.11-3.92-1.55-4-3.64-.07-1.58-.1-3.35-.1-5.07s0-3.53.1-5.08c.08-1.73,1.16-3.49,4-3.6,1.51-.07,3-.07,4.57-.07s3.17,0,4.86.07a3.84,3.84,0,0,1,4.06,3.57c.08,1.8.11,3.7.11,5.65,0,1.51,0,3.06-.11,4.5A3.94,3.94,0,0,1,375.52,94.33ZM369,79.71c-.76,0-1.48,0-2.16,0-1.77,0-1.77,1.08-1.77,4.25H369Zm0,7.13h-3.93c0,1,0,2.09.08,3.13.07,1.55,1.18,1.55,3.85,1.55ZM376.42,84c0-.94,0-1.84,0-2.74-.07-1.55-.94-1.55-4.1-1.55V84Zm-4.14,2.84v4.68c3.13,0,4.06,0,4.1-1.58,0-1,0-2,0-3.1Z"/><path class="cls-4" d="M414.76,91.2a1.44,1.44,0,0,1,1.47,1.51c0,1.73-1.73,1.76-3,1.76a25.25,25.25,0,0,1-11.23-2.41,28,28,0,0,1-10.4,3,1.58,1.58,0,0,1-1.59-1.59A1.43,1.43,0,0,1,391.61,92a20.25,20.25,0,0,0,7.45-1.8,11.79,11.79,0,0,1-2.77-3c-2.7,2.34-7.27,5.22-8.49,5.22a1.43,1.43,0,0,1-1.48-1.44,1.61,1.61,0,0,1,1-1.44,29.42,29.42,0,0,0,9.9-7.45,2.18,2.18,0,0,1,.54-.43c-1.73-.4-2.34-1.51-2.34-3.46,0-.25,0-.93,0-1.69,0-1.47.1-2.45,1.54-2.45a1.44,1.44,0,0,1,1.59,1.26c0,1,0,2.16,0,2.56,0,.94.29,1.3,2.67,1.3,3.09,0,3.74-.22,3.74-1.84a1.24,1.24,0,0,1,1.37-1.26c.82,0,1.69.5,1.69,1.33,0,3.93-1.69,4.5-6.84,4.5-.47,0-.9,0-1.33,0a1.17,1.17,0,0,1,.47.93,1.15,1.15,0,0,1-.18.65c2.16,0,5.65-.11,6.26-.11,1.94,0,2.88,1,2.88,2.2,0,.9-.33,1.72-4,4.5a30.31,30.31,0,0,0,8.6,1.08h.94ZM390,76.58a1.58,1.58,0,0,1-1.73,1.48c-1.66,0-1.69-1.19-1.69-2.7,0-2,.11-4.64,3.81-4.68,1.05,0,2.13-.07,3.24-.07a9.79,9.79,0,0,0-.93-1.66,1,1,0,0,1-.15-.54,1.08,1.08,0,0,1,.58-.9c-.76,0-1.44,0-2.09.07H391A1.65,1.65,0,0,1,389.2,66c0-.69.5-1.34,1.58-1.34a134.46,134.46,0,0,0,19.12-1.47,1.53,1.53,0,0,1,.43,0,1.46,1.46,0,0,1,1.58,1.48c0,1.19-.72,1.29-2.63,1.55a1.23,1.23,0,0,1,.55,1,11.79,11.79,0,0,1-1.3,3.39c1.15,0,2.3,0,3.38.07,1.95,0,4.11,1,4.18,3.27,0,.4,0,.9,0,1.41,0,1.37-.14,2.59-1.87,2.59a1.53,1.53,0,0,1-1.69-1.44v-.07c0-2.52,0-3-1.91-3-2.48,0-5.83-.07-9.14-.07.94.54,2.84,2.13,2.84,3.24a1.69,1.69,0,0,1-1.54,1.66,1.12,1.12,0,0,1-1-.61,11.83,11.83,0,0,0-2.13-2.45,1,1,0,0,1-.36-.72,1.38,1.38,0,0,1,.8-1.12c-3,0-5.91,0-8,.07-1.94,0-2,.65-2.05,1.55v1.62Zm-1.95,4.47a1.83,1.83,0,0,1,1.08-1.52,7.16,7.16,0,0,0,2.81-3.2,1.37,1.37,0,0,1,1.33-1,1.56,1.56,0,0,1,1.62,1.48c0,1.65-2.91,5.72-5.18,5.72A1.55,1.55,0,0,1,388.08,81.05Zm7-13.5c.29.29,1.69,1.91,1.69,2.8,0,.08,0,.18,0,.26,1,0,2.09,0,3.13,0a9.42,9.42,0,0,0-.94-2.19,1.28,1.28,0,0,1-.1-.47.94.94,0,0,1,.39-.76c-1.47.11-2.91.18-4.28.25Zm9.68,18.64c0-.14-.17-.21-.32-.21h-.14c-.18,0-3.24.07-5.4.07A11,11,0,0,0,402,88.68C403.74,87.52,404.78,86.48,404.78,86.19Zm.62-15.84a11.89,11.89,0,0,0,1.29-3.63.54.54,0,0,1,.08-.22c-1.77.18-3.68.36-5.51.51a5.77,5.77,0,0,1,1.62,3.13.93.93,0,0,1-.07.43c.82,0,1.69,0,2.52,0A2.5,2.5,0,0,1,405.4,70.35Zm5.86,10.52a13.89,13.89,0,0,0-2.91-3.57,1.47,1.47,0,0,1-.58-1.08,1.45,1.45,0,0,1,1.55-1.29c1.26,0,5,3.49,5,5a1.82,1.82,0,0,1-1.73,1.8A1.56,1.56,0,0,1,411.26,80.87Z"/><path class="cls-4" d="M423.08,72.26a1.43,1.43,0,0,1-1.55-1.47,1.46,1.46,0,0,1,1.55-1.48h9.71a1.48,1.48,0,1,1,0,3ZM430,94.33c-.76,0-1.55.07-2.34.07s-1.55,0-2.27-.07a2.74,2.74,0,0,1-2.66-2.85c0-.93,0-1.87,0-2.77s0-1.76,0-2.55a2.68,2.68,0,0,1,2.62-2.74c.69,0,1.41-.07,2.13-.07.9,0,1.8,0,2.62.07A2.85,2.85,0,0,1,433,86c0,.82,0,1.8,0,2.77s0,1.91,0,2.7A2.9,2.9,0,0,1,430,94.33Zm-5.55-27a1.44,1.44,0,0,1,0-2.88h7a1.44,1.44,0,1,1,0,2.88Zm20.81,12.56v1.44c2.23,0,4.53,0,6.41-.07a1.12,1.12,0,0,1,0,2.23c-10.33,0-11.23,0-13,0-1.95,0-3.31-.76-3.35-2.74,0-.86,0-2.12,0-3.38-.72.9-1.3.9-1.37.9a1.65,1.65,0,0,1-1.59-1.51v-.11a1.53,1.53,0,0,1-.93.32h-7a1.44,1.44,0,0,1,0-2.88h7A1.4,1.4,0,0,1,433,75.5c0,.11,0,.18,0,.29a16.61,16.61,0,0,0,4.32-5.72,1.12,1.12,0,0,1,1.08-.65,3.33,3.33,0,0,1,.54.07.64.64,0,0,1,0-.29v-.68h-3.63a1.35,1.35,0,1,1,0-2.7h3.63V64.74c0-.83.76-1.22,1.51-1.22a1.32,1.32,0,0,1,1.48,1.22v1.08h3.53V64.74c0-.83.72-1.22,1.47-1.22a1.32,1.32,0,0,1,1.48,1.22v1.08h3.74a1.35,1.35,0,1,1,0,2.7h-3.74v.68a1.26,1.26,0,0,1-1.4,1.23,1.81,1.81,0,0,1-1.16-.4.7.7,0,0,1,.15.4,3.8,3.8,0,0,1-.4,1c2,0,4,0,5.62,0a1.06,1.06,0,0,1,1,1.12,1,1,0,0,1-1.08,1.08h0c-1.62,0-3.7,0-5.79,0v1.34h4.64a.85.85,0,0,1,.9.9.87.87,0,0,1-.9.9h-4.64v1.36h4.64a.91.91,0,0,1,.94.94.87.87,0,0,1-.94.86Zm-20.73,1.7a1.44,1.44,0,1,1,0-2.88h7a1.44,1.44,0,1,1,0,2.88Zm5.5,7.27c0-.69,0-1.37,0-1.88-.08-.89-.9-1-2.2-1-2.19,0-2.19.08-2.19,2.81,0,.68,0,1.37,0,1.91,0,.79.83.86,2.09.86,1.55,0,2.23-.21,2.27-.9C430,90.19,430,89.5,430,88.86Zm5.37-1.48a1.17,1.17,0,0,1-1.16-1.29,1.23,1.23,0,0,1,1.16-1.34l12.34-.07c1.8,0,2.63.83,2.63,1.84,0,1.54-2.52,3.45-3.6,4.24a27.38,27.38,0,0,0,5.72.72,1.34,1.34,0,0,1,1.23,1.44,1.55,1.55,0,0,1-1.66,1.59,28.33,28.33,0,0,1-8.64-1.84,31.72,31.72,0,0,1-9.25,2.2,1.47,1.47,0,0,1-1.47-1.51A1.31,1.31,0,0,1,434.05,92a30.72,30.72,0,0,0,6.38-1.08,12.31,12.31,0,0,1-3.24-3.56Zm7-10.65h-4.25c0,.43,0,.9,0,1.36h4.29Zm0,3.16h-4.25v.26c0,1.18.61,1.18,4.25,1.18Zm0-6.3-3.1,0a1,1,0,0,0-1,1l0,.26h4.18Zm2.95-5.07h-3.53v.68a1.29,1.29,0,0,1-1.44,1.23,1.39,1.39,0,0,1-.4,0,1,1,0,0,1,.11.5,1,1,0,0,1-.14.54c.75,0,1.55,0,2.37,0,.18-.4.33-.79.54-1.37a1.23,1.23,0,0,1,1.26-.65,2.32,2.32,0,0,1,1.41.43,1,1,0,0,1-.18-.61Zm1,18.75c0-.14-.29-.14-.5-.14h-5.66a9.88,9.88,0,0,0,3.28,2.48A8,8,0,0,0,446.33,87.27Z"/><path class="cls-4" d="M483.52,93.86c-3.17.07-6.48.11-9.79.11s-6.63,0-9.87-.11-4.68-1.69-4.78-4.36-.15-5.93-.15-9.28c0-4.07.07-8.25.15-11.77,0-2.31,1.8-3.85,4.5-3.93,3.13-.07,6.44-.1,9.82-.1s6.8,0,10.19.1c2.52.08,4.35,1.59,4.39,4.11.07,3.67.14,7.74.14,11.66,0,3.24,0,6.37-.14,9.11A4.43,4.43,0,0,1,483.52,93.86ZM484.67,79c0-3.1,0-6.19-.15-9-.07-2.06-.79-2.41-2.55-2.45-2.7,0-5.69-.07-8.6-.07s-5.8,0-8.32.07c-2.05,0-2.63.61-2.66,2.45-.07,2.91-.11,6.12-.11,9.25s0,6.19.11,8.89c.07,2.05.79,2.41,3,2.45,2.48,0,5.11.07,7.88.07s5.62,0,8.54-.07c2,0,2.62-1,2.69-2.56C484.63,85.22,484.67,82.13,484.67,79Zm-9.07-3.1H465.37a1.46,1.46,0,1,1,0-2.91h10.19V70.25a1.48,1.48,0,0,1,1.62-1.44,1.46,1.46,0,0,1,1.62,1.44l0,2.77H482a1.46,1.46,0,1,1,0,2.91h-3.16l0,3.64.08,4.82v.08c0,1.94-1.34,4.46-5.51,4.46-1.73,0-4-.15-4-2a1.57,1.57,0,0,1,1.66-1.58,2.53,2.53,0,0,1,.47,0,10.11,10.11,0,0,0,2,.25c1.19,0,2.05-.43,2.05-1.9Zm-5.22,6.3a10.09,10.09,0,0,0-3.21-2.52,1.26,1.26,0,0,1-.79-1.11A1.63,1.63,0,0,1,468,77.09c.72,0,5.18,1.94,5.18,4a1.82,1.82,0,0,1-1.65,1.84A1.54,1.54,0,0,1,470.38,82.23Z"/><path class="cls-4" d="M515.12,87.45v6.23a1.67,1.67,0,0,1-3.31,0V87.45h-3.13A1.45,1.45,0,0,1,507.06,86a1.56,1.56,0,0,1,1.62-1.58h3.13v-.9l.11-6.23a34.24,34.24,0,0,1-7.59,10.22,1.8,1.8,0,0,1-1.3.54,1.69,1.69,0,0,1-1.44-.79l-.11,6.37a1.65,1.65,0,0,1-1.76,1.66A1.59,1.59,0,0,1,498,93.68v0L498.39,77c-2.31,3-3.28,3.53-4.07,3.53A1.64,1.64,0,0,1,492.63,79a1.73,1.73,0,0,1,.61-1.26,33.29,33.29,0,0,0,8.21-13A1.61,1.61,0,0,1,503,63.52a2,2,0,0,1,2,1.76c0,.86-1.76,4.25-3.1,6.52l-.28,13.92a2.37,2.37,0,0,1,.46-.5A32.55,32.55,0,0,0,510.84,74l-6.12.1h0a1.46,1.46,0,0,1-1.62-1.51A1.59,1.59,0,0,1,504.72,71h7V64.88a1.57,1.57,0,0,1,1.69-1.54,1.62,1.62,0,0,1,1.77,1.54V71h8a1.54,1.54,0,0,1,1.59,1.59,1.47,1.47,0,0,1-1.55,1.54h0L516,74a34.63,34.63,0,0,0,9.43,10.22,1.74,1.74,0,0,1,.75,1.44,1.79,1.79,0,0,1-1.76,1.8,2.37,2.37,0,0,1-1.44-.58,38.28,38.28,0,0,1-8-9.57l.1,6.15v.94h3.21a1.51,1.51,0,1,1,0,3Z"/><path class="cls-2" d="M554.35,80.21c-1.32-1.12-4.6-4.95-8.55-4.63-2.67.22-4.45,1.87-6.78,4.09s-5.11,4.86-5,8.46a7.68,7.68,0,0,0,3.5,6.29c2.39,1.28,7.58-1.75,9-1.56.92.13,5.29,1.7,8.61,1.38,2.2-.21,3.73-4.08,3.54-6.69C558.43,84.25,556.42,82,554.35,80.21Z"/><path class="cls-2" d="M533.74,81.68A4.17,4.17,0,0,0,537.08,80c1.44-2.14-.41-5.06-1-6-1.37-2.18-4.43-5.1-6.46-4.26-1.77.74-2,4-1.53,6.09C528.65,78.39,530.84,81.7,533.74,81.68Z"/><path class="cls-2" d="M539.9,75.41a4.16,4.16,0,0,0,3.63-.76c2-1.68,1-5,.73-6-.68-2.45-2.76-6-4.9-5.76-1.89.25-3,3.34-3.15,5.43C536,70.94,537.14,74.67,539.9,75.41Z"/><path class="cls-2" d="M558.44,81A4.22,4.22,0,0,1,555,79.49c-1.55-2.06.14-5.09.68-6.07,1.26-2.26,4.16-5.33,6.22-4.6,1.81.63,2.2,3.91,1.86,6C563.35,77.45,561.34,80.87,558.44,81Z"/><path class="cls-2" d="M552.17,75a4.11,4.11,0,0,1-3.69-.44c-2.1-1.5-1.48-4.84-1.27-5.93.46-2.5,2.2-6.26,4.37-6.17,1.89.08,3.28,3.06,3.62,5.13C555.64,70.25,554.84,74.07,552.17,75Z"/></g></g></svg>